#N canvas 209 133 1510 869 10;
#N canvas 946 71 450 346 freeze 0;
#N canvas 170 50 1090 754 fft-analysis 0;
#X obj 70 376 *~;
#X obj 23 700 *~;
#X obj 413 207 rfft~;
#X obj 293 92 rfft~;
#X obj 21 649 rifft~;
#X obj 24 724 outlet~;
#X obj 40 376 *~;
#X obj 40 398 +~;
#X obj 28 455 *~;
#X obj 61 456 *~;
#X obj 130 700 r window-size;
#X obj 480 594 r window-size;
#X obj 480 643 block~;
#X obj 19 349 +~ 1e-15;
#X obj 22 676 *~;
#X obj 55 676 tabreceive~ \$0-hann;
#X obj 130 721 expr 2/(3*$f1);
#X obj 591 563 loadbang;
#X obj 40 422 q8_rsqrt~;
#X obj -90 26 tabreceive~ prev-real;
#X obj 73 29 tabreceive~ prev-imag;
#X obj 211 280 r lock;
#X obj 29 245 lrshift~ 1;
#X obj 24 269 lrshift~ -1;
#X obj 141 227 lrshift~ 1;
#X obj 133 251 lrshift~ -1;
#X obj 35 300 *~;
#X obj 159 312 *~;
#X obj 19 325 +~;
#X obj 125 331 +~;
#X text 441 559 'set' message to block;
#X text 444 576 allows variable size;
#X obj 492 96 inlet;
#X obj 424 276 tabwrite~ imag;
#X obj 522 287 tabwrite~ real;
#X obj 30 552 cmul~;
#X obj 62 520 tabreceive~ real;
#X obj -3 494 tabreceive~ imag;
#X obj 100 565 tabsend~ prev-imag;
#X obj 99 589 tabsend~ prev-real;
#N canvas 356 112 482 432 inlet 0;
#X obj 168 80 inlet~;
#X obj 116 149 *~;
#X obj 227 170 *~;
#X obj 287 109 tabreceive~ \$0-hann;
#X obj 60 208 outlet~;
#X obj 211 192 outlet~;
#X obj 108 114 z~ 512;
#X connect 0 0 2 0;
#X connect 0 0 6 0;
#X connect 1 0 4 0;
#X connect 2 0 5 0;
#X connect 3 0 2 1;
#X connect 3 0 1 1;
#X connect 6 0 1 0;
#X restore 402 40 pd inlet;
#X obj 351 14 inlet~;
#X obj 79 137 tabwrite~ beh-real;
#X obj 195 137 tabwrite~ beh-imag;
#X obj 66 160 tabreceive~ beh-real;
#X obj 197 163 tabreceive~ beh-imag;
#X msg 480 618 set \$1 4;
#X obj -222 642 sig~;
#X obj -235 565 dbtorms;
#X obj -235 537 + 70;
#X obj -235 501 / 2.2;
#X obj -234 668 expr~ $v1>$v2;
#X obj -160 486 *~;
#X obj -131 486 *~;
#X obj -149 565 q8_sqrt~;
#X obj -151 530 +~ 1e-20;
#X obj -52 627 *~;
#X obj 4 625 *~;
#X obj -222 611 - 0.031;
#X obj -243 470 r purity;
#X msg 591 589 \; pd dsp 1 \; window-size 2048;
#N canvas 0 50 450 300 cdiv 0;
#X obj 78 69 inlet~;
#X obj 78 179 outlet~;
#X obj 197 174 outlet~;
#X obj 78 125 *~;
#X obj 128 69 inlet~;
#X obj 128 125 *~;
#X obj 212 69 inlet~;
#X obj 197 126 *~;
#X obj 262 69 inlet~;
#X obj 247 126 *~;
#X obj 198 151 -~;
#X obj 78 156 +~;
#X text 69 25 complex division;
#X connect 0 0 3 0;
#X connect 0 0 9 0;
#X connect 3 0 11 0;
#X connect 4 0 5 0;
#X connect 4 0 7 0;
#X connect 5 0 11 1;
#X connect 6 0 3 1;
#X connect 6 0 7 1;
#X connect 7 0 10 0;
#X connect 8 0 5 1;
#X connect 8 0 9 1;
#X connect 9 0 10 1;
#X connect 10 0 2 0;
#X connect 11 0 1 0;
#X restore 12 195 pd cdiv;
#X connect 0 0 7 1;
#X connect 1 0 5 0;
#X connect 2 0 33 0;
#X connect 2 1 34 0;
#X connect 3 0 42 0;
#X connect 3 1 43 0;
#X connect 4 0 14 0;
#X connect 6 0 7 0;
#X connect 7 0 18 0;
#X connect 8 0 35 2;
#X connect 9 0 35 3;
#X connect 10 0 16 0;
#X connect 11 0 46 0;
#X connect 13 0 6 1;
#X connect 13 0 6 0;
#X connect 13 0 8 0;
#X connect 14 0 1 0;
#X connect 15 0 14 1;
#X connect 16 0 1 1;
#X connect 17 0 60 0;
#X connect 18 0 8 1;
#X connect 18 0 9 1;
#X connect 19 0 61 0;
#X connect 20 0 61 1;
#X connect 21 0 26 1;
#X connect 21 0 27 1;
#X connect 22 0 26 0;
#X connect 23 0 26 0;
#X connect 24 0 27 0;
#X connect 25 0 27 0;
#X connect 26 0 28 1;
#X connect 27 0 29 1;
#X connect 28 0 13 0;
#X connect 29 0 0 0;
#X connect 29 0 0 1;
#X connect 29 0 9 0;
#X connect 32 0 42 0;
#X connect 32 0 43 0;
#X connect 32 0 34 0;
#X connect 32 0 33 0;
#X connect 35 0 39 0;
#X connect 35 0 52 0;
#X connect 35 0 52 1;
#X connect 35 0 56 1;
#X connect 35 1 38 0;
#X connect 35 1 53 0;
#X connect 35 1 53 1;
#X connect 35 1 57 1;
#X connect 36 0 35 1;
#X connect 37 0 35 0;
#X connect 40 0 3 0;
#X connect 40 1 2 0;
#X connect 41 0 40 0;
#X connect 44 0 61 2;
#X connect 45 0 61 3;
#X connect 46 0 12 0;
#X connect 47 0 51 1;
#X connect 48 0 58 0;
#X connect 49 0 48 0;
#X connect 50 0 49 0;
#X connect 51 0 56 0;
#X connect 51 0 57 0;
#X connect 52 0 55 0;
#X connect 53 0 55 0;
#X connect 54 0 51 0;
#X connect 55 0 54 0;
#X connect 56 0 4 0;
#X connect 57 0 4 1;
#X connect 58 0 47 0;
#X connect 59 0 50 0;
#X connect 61 0 22 0;
#X connect 61 0 23 0;
#X connect 61 0 28 0;
#X connect 61 1 24 0;
#X connect 61 1 25 0;
#X connect 61 1 29 0;
#X restore 77 -165 pd fft-analysis;
#N canvas 67 50 497 262 phase-tables 0;
#X obj 69 41 table prev-real 1024;
#X obj 202 41 table prev-imag 1024;
#X obj 84 69 table real 1024;
#X obj 189 70 table imag 1024;
#X obj 69 97 table beh-real 1024;
#X obj 197 95 table beh-imag 1024;
#X restore 212 -232 pd phase-tables;
#N canvas 0 110 565 454 hann-window 0;
#N canvas 0 50 450 300 (subpatch) 0;
#X array \$0-hann 2048 float 0;
#X coords 0 1 2047 0 300 100 1;
#X restore 82 311 graph;
#X obj 378 165 osc~;
#X obj 378 190 *~ -0.5;
#X obj 378 214 +~ 0.5;
#X obj 331 247 tabwrite~ \$0-hann;
#X obj 37 88 r window-size;
#X obj 38 173 /;
#X obj 127 142 samplerate~;
#X obj 38 251 s window-sec;
#X obj 177 204 swap;
#X obj 177 228 /;
#X obj 177 252 s window-hz;
#X obj 49 201 * 1000;
#X obj 49 228 s window-msec;
#X obj 38 115 t f b f;
#X msg 173 92 resize \$1;
#X obj 173 116 s \$0-hann;
#X obj 330 105 r window-hz;
#X msg 382 130 0;
#X obj 330 131 t f b;
#X text 15 8 calculate Hann window table (variable window size) and
constants window-hz (fundamental frequency of analysis) \, window-sec
and window-msec (analysis window size in seconds and msec).;
#X msg 126 62 2048;
#X connect 1 0 2 0;
#X connect 2 0 3 0;
#X connect 3 0 4 0;
#X connect 5 0 14 0;
#X connect 6 0 8 0;
#X connect 6 0 12 0;
#X connect 7 0 6 1;
#X connect 7 0 9 1;
#X connect 9 0 10 0;
#X connect 9 1 10 1;
#X connect 10 0 11 0;
#X connect 12 0 13 0;
#X connect 14 0 6 0;
#X connect 14 0 9 0;
#X connect 14 1 7 0;
#X connect 14 2 15 0;
#X connect 15 0 16 0;
#X connect 17 0 19 0;
#X connect 18 0 1 1;
#X connect 19 0 1 0;
#X connect 19 1 4 0;
#X connect 19 1 18 0;
#X connect 21 0 14 0;
#X restore 212 -208 pd hann-window;
#X obj 212 -168 s lock;
#X obj 212 -188 tgl 15 0 empty empty empty 17 7 0 10 -262144 -1 -1
0 1;
#X obj 145 -85 hsl 128 15 0 127 0 0 empty empty empty -2 -8 0 10 -262144
-1 -1 3000 1;
#X obj 145 -65 s purity;
#N canvas 0 50 450 300 blend 0;
#X obj 90 33 inlet~;
#X obj 259 39 inlet;
#X obj 81 222 outlet~;
#X obj 136 222 outlet~;
#X obj 158 33 inlet~;
#X obj 305 91 / 127;
#X obj 325 120 - 1;
#X obj 318 152 * -1;
#X msg 239 130 \$1 20;
#X msg 312 188 \$1 20;
#X obj 313 216 line~;
#X obj 239 163 line~;
#X obj 104 142 *~;
#X obj 154 143 *~;
#X obj 334 44 loadbang;
#X msg 321 65 0;
#X connect 0 0 12 0;
#X connect 1 0 5 0;
#X connect 4 0 13 0;
#X connect 5 0 6 0;
#X connect 5 0 8 0;
#X connect 6 0 7 0;
#X connect 7 0 9 0;
#X connect 8 0 11 0;
#X connect 9 0 10 0;
#X connect 10 0 13 1;
#X connect 11 0 12 1;
#X connect 12 0 2 0;
#X connect 12 0 3 0;
#X connect 13 0 2 0;
#X connect 13 0 3 0;
#X connect 14 0 15 0;
#X connect 15 0 5 0;
#X restore 84 -107 pd blend;
#X obj 193 -235 vsl 15 128 0 127 0 0 empty empty empty 0 -9 0 10 -262144
-1 -1 0 1;
#X obj 134 -230 bng 20 250 50 0 empty empty empty 17 7 0 10 -262144
-1 -1;
#X obj 142 -318 tgl 15 0 empty empty empty 17 7 0 10 -262144 -1 -1
0 1;
#X obj 134 -292 route 0 1;
#X msg 168 -268 127;
#X msg 133 -268 0;
#X obj 79 -327 inlet~;
#X obj 142 -345 inlet;
#X obj 221 -115 inlet;
#X obj 93 43 outlet~;
#X obj 153 41 outlet~;
#X connect 0 0 7 0;
#X connect 4 0 3 0;
#X connect 5 0 6 0;
#X connect 7 0 17 0;
#X connect 7 1 18 0;
#X connect 8 0 7 2;
#X connect 9 0 0 1;
#X connect 10 0 11 0;
#X connect 11 0 13 0;
#X connect 11 1 9 0;
#X connect 11 1 12 0;
#X connect 12 0 8 0;
#X connect 13 0 8 0;
#X connect 14 0 0 0;
#X connect 15 0 10 0;
#X connect 16 0 5 0;
#X restore 9 57 pd freeze;
#X obj 10 -6 adc~;
#N canvas 945 424 450 346 freeze1 0;
#N canvas 234 56 1090 777 fft-analysis 0;
#X obj 70 376 *~;
#X obj 23 700 *~;
#X obj 413 207 rfft~;
#X obj 293 92 rfft~;
#X obj 21 649 rifft~;
#X obj 24 724 outlet~;
#X obj 40 376 *~;
#X obj 40 398 +~;
#X obj 28 455 *~;
#X obj 61 456 *~;
#X obj 130 700 r window-size;
#X obj 480 594 r window-size;
#X obj 480 643 block~;
#X obj 19 349 +~ 1e-15;
#X obj 22 676 *~;
#X obj 130 721 expr 2/(3*$f1);
#X obj 591 563 loadbang;
#X obj 40 422 q8_rsqrt~;
#X obj 211 280 r lock;
#X obj 29 245 lrshift~ 1;
#X obj 24 269 lrshift~ -1;
#X obj 141 227 lrshift~ 1;
#X obj 133 251 lrshift~ -1;
#X obj 35 300 *~;
#X obj 159 312 *~;
#X obj 19 325 +~;
#X obj 125 331 +~;
#X text 441 559 'set' message to block;
#X text 444 576 allows variable size;
#X obj 492 96 inlet;
#X obj 30 552 cmul~;
#N canvas 356 112 482 432 inlet 0;
#X obj 168 80 inlet~;
#X obj 116 149 *~;
#X obj 227 170 *~;
#X obj 287 109 tabreceive~ \$0-hann;
#X obj 60 208 outlet~;
#X obj 211 192 outlet~;
#X obj 108 114 z~ 512;
#X connect 0 0 2 0;
#X connect 0 0 6 0;
#X connect 1 0 4 0;
#X connect 2 0 5 0;
#X connect 3 0 2 1;
#X connect 3 0 1 1;
#X connect 6 0 1 0;
#X restore 402 40 pd inlet;
#X obj 351 14 inlet~;
#X msg 480 618 set \$1 4;
#X obj -222 642 sig~;
#X obj -235 565 dbtorms;
#X obj -235 537 + 70;
#X obj -235 501 / 2.2;
#X obj -234 668 expr~ $v1>$v2;
#X obj -160 486 *~;
#X obj -131 486 *~;
#X obj -149 565 q8_sqrt~;
#X obj -151 530 +~ 1e-20;
#X obj -52 627 *~;
#X obj 4 625 *~;
#X obj -222 611 - 0.031;
#X msg 591 589 \; pd dsp 1 \; window-size 2048;
#N canvas 0 50 450 300 cdiv 0;
#X obj 78 69 inlet~;
#X obj 78 179 outlet~;
#X obj 197 174 outlet~;
#X obj 78 125 *~;
#X obj 128 69 inlet~;
#X obj 128 125 *~;
#X obj 212 69 inlet~;
#X obj 197 126 *~;
#X obj 262 69 inlet~;
#X obj 247 126 *~;
#X obj 198 151 -~;
#X obj 78 156 +~;
#X text 69 25 complex division;
#X connect 0 0 3 0;
#X connect 0 0 9 0;
#X connect 3 0 11 0;
#X connect 4 0 5 0;
#X connect 4 0 7 0;
#X connect 5 0 11 1;
#X connect 6 0 3 1;
#X connect 6 0 7 1;
#X connect 7 0 10 0;
#X connect 8 0 5 1;
#X connect 8 0 9 1;
#X connect 9 0 10 1;
#X connect 10 0 2 0;
#X connect 11 0 1 0;
#X restore 12 195 pd cdiv;
#X obj -90 26 tabreceive~ prev-real1;
#X obj 73 29 tabreceive~ prev-imag1;
#X obj 79 137 tabwrite~ beh-real1;
#X obj 195 137 tabwrite~ beh-imag1;
#X obj 197 163 tabreceive~ beh-imag1;
#X obj 66 160 tabreceive~ beh-real1;
#X obj 100 565 tabsend~ prev-imag1;
#X obj 99 589 tabsend~ prev-real1;
#X obj 62 520 tabreceive~ real1;
#X obj -3 494 tabreceive~ imag1;
#X obj 424 276 tabwrite~ imag1;
#X obj 522 287 tabwrite~ real1;
#X obj 55 676 tabreceive~ \$0-hann1;
#X obj -243 470 r purity1;
#X connect 0 0 7 1;
#X connect 1 0 5 0;
#X connect 2 0 58 0;
#X connect 2 1 59 0;
#X connect 3 0 50 0;
#X connect 3 1 51 0;
#X connect 4 0 14 0;
#X connect 6 0 7 0;
#X connect 7 0 17 0;
#X connect 8 0 30 2;
#X connect 9 0 30 3;
#X connect 10 0 15 0;
#X connect 11 0 33 0;
#X connect 13 0 6 1;
#X connect 13 0 6 0;
#X connect 13 0 8 0;
#X connect 14 0 1 0;
#X connect 15 0 1 1;
#X connect 16 0 46 0;
#X connect 17 0 8 1;
#X connect 17 0 9 1;
#X connect 18 0 23 1;
#X connect 18 0 24 1;
#X connect 19 0 23 0;
#X connect 20 0 23 0;
#X connect 21 0 24 0;
#X connect 22 0 24 0;
#X connect 23 0 25 1;
#X connect 24 0 26 1;
#X connect 25 0 13 0;
#X connect 26 0 0 0;
#X connect 26 0 0 1;
#X connect 26 0 9 0;
#X connect 29 0 50 0;
#X connect 29 0 51 0;
#X connect 29 0 58 0;
#X connect 29 0 59 0;
#X connect 30 0 39 0;
#X connect 30 0 39 1;
#X connect 30 0 43 1;
#X connect 30 0 55 0;
#X connect 30 1 40 0;
#X connect 30 1 40 1;
#X connect 30 1 44 1;
#X connect 30 1 54 0;
#X connect 31 0 3 0;
#X connect 31 1 2 0;
#X connect 32 0 31 0;
#X connect 33 0 12 0;
#X connect 34 0 38 1;
#X connect 35 0 45 0;
#X connect 36 0 35 0;
#X connect 37 0 36 0;
#X connect 38 0 43 0;
#X connect 38 0 44 0;
#X connect 39 0 42 0;
#X connect 40 0 42 0;
#X connect 41 0 38 0;
#X connect 42 0 41 0;
#X connect 43 0 4 0;
#X connect 44 0 4 1;
#X connect 45 0 34 0;
#X connect 47 0 19 0;
#X connect 47 0 20 0;
#X connect 47 0 25 0;
#X connect 47 1 21 0;
#X connect 47 1 22 0;
#X connect 47 1 26 0;
#X connect 48 0 47 0;
#X connect 49 0 47 1;
#X connect 52 0 47 3;
#X connect 53 0 47 2;
#X connect 56 0 30 1;
#X connect 57 0 30 0;
#X connect 60 0 14 1;
#X connect 61 0 37 0;
#X restore 77 -165 pd fft-analysis;
#N canvas 67 50 497 262 phase-tables 0;
#X obj 69 41 table prev-real1 1024;
#X obj 202 41 table prev-imag1 1024;
#X obj 189 70 table imag1 1024;
#X obj 197 95 table beh-imag1 1024;
#X obj 84 69 table real1 1024;
#X obj 69 97 table beh-real1 1024;
#X restore 212 -232 pd phase-tables;
#N canvas 0 110 565 454 hann-window 0;
#N canvas 0 50 450 300 (subpatch) 0;
#X array \$0-hann1 2048 float 0;
#X coords 0 1 2047 0 300 100 1;
#X restore 82 311 graph;
#X obj 378 165 osc~;
#X obj 378 190 *~ -0.5;
#X obj 378 214 +~ 0.5;
#X obj 37 88 r window-size;
#X obj 38 173 /;
#X obj 127 142 samplerate~;
#X obj 38 251 s window-sec;
#X obj 177 204 swap;
#X obj 177 228 /;
#X obj 177 252 s window-hz;
#X obj 49 201 * 1000;
#X obj 49 228 s window-msec;
#X obj 38 115 t f b f;
#X msg 173 92 resize \$1;
#X obj 330 105 r window-hz;
#X msg 382 130 0;
#X obj 330 131 t f b;
#X text 15 8 calculate Hann window table (variable window size) and
constants window-hz (fundamental frequency of analysis) \, window-sec
and window-msec (analysis window size in seconds and msec).;
#X msg 126 62 2048;
#X obj 331 247 tabwrite~ \$0-hann1;
#X obj 173 116 s \$0-hann1;
#X connect 1 0 2 0;
#X connect 2 0 3 0;
#X connect 3 0 20 0;
#X connect 4 0 13 0;
#X connect 5 0 7 0;
#X connect 5 0 11 0;
#X connect 6 0 5 1;
#X connect 6 0 8 1;
#X connect 8 0 9 0;
#X connect 8 1 9 1;
#X connect 9 0 10 0;
#X connect 11 0 12 0;
#X connect 13 0 5 0;
#X connect 13 0 8 0;
#X connect 13 1 6 0;
#X connect 13 2 14 0;
#X connect 14 0 21 0;
#X connect 15 0 17 0;
#X connect 16 0 1 1;
#X connect 17 0 1 0;
#X connect 17 1 16 0;
#X connect 17 1 20 0;
#X connect 19 0 13 0;
#X restore 212 -208 pd hann-window;
#X obj 212 -168 s lock;
#X obj 212 -188 tgl 15 0 empty empty empty 17 7 0 10 -262144 -1 -1
0 1;
#X obj 145 -86 hsl 128 15 0 127 0 0 empty empty empty -2 -8 0 10 -262144
-1 -1 3000 1;
#N canvas 0 50 450 300 blend 0;
#X obj 90 33 inlet~;
#X obj 259 39 inlet;
#X obj 81 222 outlet~;
#X obj 136 222 outlet~;
#X obj 158 33 inlet~;
#X obj 305 91 / 127;
#X obj 325 120 - 1;
#X obj 318 152 * -1;
#X msg 239 130 \$1 20;
#X msg 312 188 \$1 20;
#X obj 313 216 line~;
#X obj 239 163 line~;
#X obj 104 142 *~;
#X obj 154 143 *~;
#X obj 334 44 loadbang;
#X msg 321 65 0;
#X connect 0 0 12 0;
#X connect 1 0 5 0;
#X connect 4 0 13 0;
#X connect 5 0 6 0;
#X connect 5 0 8 0;
#X connect 6 0 7 0;
#X connect 7 0 9 0;
#X connect 8 0 11 0;
#X connect 9 0 10 0;
#X connect 10 0 13 1;
#X connect 11 0 12 1;
#X connect 12 0 2 0;
#X connect 12 0 3 0;
#X connect 13 0 2 0;
#X connect 13 0 3 0;
#X connect 14 0 15 0;
#X connect 15 0 5 0;
#X restore 84 -107 pd blend;
#X obj 193 -235 vsl 15 128 0 127 0 0 empty empty empty 0 -9 0 10 -262144
-1 -1 0 1;
#X obj 134 -230 bng 20 250 50 0 empty empty empty 17 7 0 10 -262144
-1 -1;
#X obj 142 -318 tgl 15 0 empty empty empty 17 7 0 10 -262144 -1 -1
0 1;
#X obj 134 -292 route 0 1;
#X msg 168 -268 127;
#X msg 133 -268 0;
#X obj 79 -327 inlet~;
#X obj 142 -345 inlet;
#X obj 221 -115 inlet;
#X obj 93 43 outlet~;
#X obj 153 41 outlet~;
#X obj 145 -65 s purity1;
#X connect 0 0 6 0;
#X connect 4 0 3 0;
#X connect 5 0 18 0;
#X connect 6 0 16 0;
#X connect 6 1 17 0;
#X connect 7 0 6 2;
#X connect 8 0 0 1;
#X connect 9 0 10 0;
#X connect 10 0 12 0;
#X connect 10 1 8 0;
#X connect 10 1 11 0;
#X connect 11 0 7 0;
#X connect 12 0 7 0;
#X connect 13 0 0 0;
#X connect 14 0 9 0;
#X connect 15 0 5 0;
#X restore 78 57 pd freeze1;
#X obj 34 39 tgl 15 0 empty empty empty 17 7 0 10 -262144 -1 -1 0 1
;
#X obj 98 39 tgl 15 0 empty empty empty 17 7 0 10 -262144 -1 -1 0 1
;
#X obj 63 -18 key;
#X obj 7 78 hsl 128 15 0 127 0 0 empty empty empty -2 -8 0 10 -262144
-1 -1 3000 1;
#X obj 7 98 hsl 128 15 0 127 0 0 empty empty empty -2 -8 0 10 -262144
-1 -1 3000 1;
#X floatatom 88 -17 5 0 0 0 - - -, f 5;
#X obj 182 57 *~ 40;
#X obj 182 80 clip~ -0.5 0.5;
#X text 219 56 fuzzy;
#X text 13 702 freeze: 2 is enough \; delay: tap tempo + fractions(reverse???)
\; fuzz \; kinda found an easy sol. \; eq? can use zoom
eq still \; volume boost \; ;
#X obj 63 3 sel 48 10 32;
#X obj 328 104 bng 15 250 50 0 empty empty empty 17 7 0 10 -256851
-90075 -1;
#X obj 328 20 t b b;
#X obj 328 42 timer;
#X obj 369 84 expr 60000 / $f1;
#X floatatom 328 64 10 0 0 0 - - -, f 10;
#X obj 328 84 metro;
#X floatatom 369 105 5 0 0 0 - - -, f 5;
#X text 327 4 metronome stuff;
#X floatatom 394 64 5 0 0 0 - - tempo, f 5;
#X msg 367 41 1;
#X msg 367 20 delay 1;
#X msg 397 41 stop;
#X obj 695 166 *~ 0.6;
#X obj 616 268 *~;
#X obj 646 227 hsl 64 15 0 1 0 0 empty empty del_vol -2 -8 0 10 -200669
-181970 -152358 4095 1;
#X obj 643 268 line;
#X msg 643 246 \$1 50;
#X floatatom 690 123 5 0 0 0 - - -, f 5;
#X obj 615 144 delwrite~ delay 500;
#X obj 616 187 delread4~ delay 150;
#X obj 616 289 s~ delout;
#X obj 368 425 r~ delout;
#X obj 615 123 r~ delay;
#X obj 595 -9 key;
#X floatatom 558 -10 5 0 0 0 - - -, f 5;
#X text 619 -10 to change delays sht 1-9;
#X obj 558 11 sel 49 50 51 52 53 54 55 56 57;
#X msg 557 38 1;
#X msg 576 38 2;
#X text 564 81 bang del;
#X obj 615 80 /;
#X floatatom 615 102 5 0 0 0 - - -, f 5;
#X obj 615 61 bng 15 250 50 0 empty empty empty 17 7 0 10 -262144 -1
-1;
#X obj 506 38 delay 1;
#X msg 592 38 3;
#X msg 615 38 4;
#X msg 638 38 5;
#X msg 659 38 6;
#X msg 686 38 7;
#X msg 704 38 8;
#X msg 723 38 9;
#X obj 271 425 sample_keys;
#X text 18 656 fix the sample_keys on off and the knob;
#X obj 167 334 freeverb~;
#X msg 209 180 roomsize \$1;
#X msg 214 218 damping \$1;
#X msg 167 256 wet \$1;
#X msg 167 276 dry \$1;
#X obj 286 237 hsl 128 15 0 0.75 0 0 empty empty empty -2 -8 0 10 -4032
-1 -1 12700 1;
#X floatatom 286 256 5 0 0 0 - - -, f 5;
#X obj 217 256 expr 1-$f1;
#X obj 286 161 hsl 128 15 0 1 0 0 empty empty empty -2 -8 0 10 -4034
-1 -1 7620 1;
#X obj 286 199 hsl 128 15 0 1 0 0 empty empty empty -2 -8 0 10 -260097
-1 -1 7620 1;
#X floatatom 286 218 5 0 0 0 - - -, f 5;
#X floatatom 286 180 5 0 0 0 - - -, f 5;
#X text 323 254 Wet signal to dry signal ratio;
#X text 323 270 (0 : all dry \, 1 : all wet);
#X text 334 219 Damping level;
#X text 322 181 Roomize;
#X obj 218 359 *~;
#X msg 233 314 \$1 50;
#X obj 233 336 line;
#X obj 188 359 *~;
#X obj 181 481 RingMod;
#X obj 484 564 tgl 30 0 empty empty empty 17 7 0 10 -262144 -1 -1 1
1;
#X msg 484 598 \; pd dsp \$1;
#X obj 455 470 hsl 128 15 0 1 0 0 empty mastervolume volume -2 -8 0
10 -200669 -181970 -1 8890 1;
#X obj 455 515 line;
#X msg 455 493 \$1 50;
#X obj 398 515 *~;
#X obj 427 515 *~;
#X obj 595 415 r~ toVU;
#X obj 595 437 env~;
#X obj 595 459 - 100;
#X obj 595 480 vu 15 120 empty empty -1 -8 0 10 -66577 -1 1 0;
#X obj 484 533 s~ toVU;
#X floatatom 648 459 5 0 0 0 - - vumeter, f 5;
#X obj 521 562 loadbang;
#X obj 521 584 delay 1000;
#X obj 457 409 loadbang;
#X msg 457 431 0.7;
#X obj 651 497 key;
#X obj 651 519 sel 49;
#X obj 386 589 dac~ 1 2;
#X obj 185 510 hsl 128 15 0 1 0 0 empty mastervolume volume -2 -8 0
10 -200669 -181970 -1 1270 1;
#X obj 185 555 line;
#X msg 185 533 \$1 50;
#X obj 157 555 *~;
#X obj 181 110 loadbang;
#X msg 181 130 0.6;
#X msg 213 129 1;
#X obj 271 468 s~ delay1;
#X obj 145 -84 r~ delay1;
#X obj 171 12 s~ keys;
#X obj 267 394 r~ keys;
#X obj 690 103 hsl 128 15 0 1 0 0 empty empty empty -2 -8 0 10 -262144
-1 -1 8255 1;
#X obj 88 478 loadbang;
#X obj 4 118 loadbang;
#X msg 4 140 30;
#X obj 770 51 loadbang;
#X obj 222 -166 key;
#X obj 386 566 hip~ 10;
#X obj 429 566 hip~ 10;
#X obj 371 669 writesf~ 2;
#X msg 382 649 stop;
#X msg 371 628 open soundz.wav \, start;
#X msg 240 565 open soundz.wav \, start;
#X msg 237 587 stop;
#X obj 283 592 readsf~ 2;
#X obj 206 -40 s~ delay;
#X obj 205 -62 *~;
#X obj 222 -125 tgl 15 0 empty empty empty 17 7 0 10 -262144 -1 -1
0 1;
#X msg 222 -105 \$1 100;
#X obj 222 -83 line~;
#X msg 88 500 0.1;
#X obj 26 -64 WhaAuto;
#X obj 275 -62 *~;
#X obj 292 -125 tgl 15 0 empty empty empty 17 7 0 10 -262144 -1 -1
0 1;
#X msg 292 -105 \$1 100;
#X obj 292 -83 line~;
#X obj 276 -42 s~ whaauto;
#X obj 6 -97 r~ whaauto;
#X obj 368 403 r~ whatout;
#X obj 26 -40 s~ whatout;
#X obj 46 -119 hsl 128 15 0 127 0 0 empty empty empty -2 -8 0 10 -262144
-1 -1 0 1;
#X obj 369 128 taptemp_MK;
#X obj 866 -17 keyname;
#X msg 866 66 symbol kControl_L0;
#X obj 878 46 bang;
#X obj 866 4 pack f s;
#X msg 866 26 set symbol k\$2\$1;
#X obj 866 88 t s s;
#X obj 866 110 sel kControl1 kSpace1 k01;
#X obj 1053 110 sel kControl0 kSpace0 k00;
#X obj 905 261 Guitar_specdelay~;
#X obj 222 -146 sel 45 42 43;
#X obj 355 -62 *~;
#X obj 372 -125 tgl 15 0 empty empty empty 17 7 0 10 -262144 -1 -1
0 1;
#X obj 372 -83 line~;
#X obj 356 -42 s~ specdelay;
#X obj 904 198 r~ specdelay;
#X obj 905 616 s~ specout;
#X obj 368 445 r~ specout;
#X msg 770 73 0.65;
#X obj 904 240 *~;
#X msg 372 -105 \$1 100;
#X msg 930 223 2;
#X obj 723 687 counter;
#X connect 0 0 57 0;
#X connect 0 1 57 1;
#X connect 1 0 0 0;
#X connect 1 0 2 0;
#X connect 1 0 9 0;
#X connect 1 0 107 0;
#X connect 1 0 124 0;
#X connect 1 0 130 0;
#X connect 1 0 150 0;
#X connect 1 1 0 0;
#X connect 1 1 2 0;
#X connect 1 1 9 0;
#X connect 1 1 107 0;
#X connect 1 1 124 0;
#X connect 1 1 130 0;
#X connect 1 1 150 0;
#X connect 2 0 57 0;
#X connect 2 1 57 1;
#X connect 3 0 0 1;
#X connect 4 0 2 1;
#X connect 5 0 8 0;
#X connect 5 0 13 0;
#X connect 6 0 0 2;
#X connect 7 0 2 2;
#X connect 9 0 10 0;
#X connect 13 0 3 0;
#X connect 13 1 4 0;
#X connect 13 2 24 0;
#X connect 13 2 15 0;
#X connect 15 0 16 0;
#X connect 15 1 16 1;
#X connect 16 0 18 0;
#X connect 17 0 20 0;
#X connect 18 0 19 1;
#X connect 18 0 17 0;
#X connect 18 0 22 0;
#X connect 18 0 44 0;
#X connect 19 0 14 0;
#X connect 20 0 139 0;
#X connect 23 0 19 0;
#X connect 24 0 23 0;
#X connect 25 0 19 0;
#X connect 26 0 32 0;
#X connect 27 0 34 0;
#X connect 28 0 30 0;
#X connect 29 0 27 1;
#X connect 30 0 29 0;
#X connect 31 0 26 1;
#X connect 33 0 26 0;
#X connect 33 0 27 0;
#X connect 35 0 83 0;
#X connect 35 0 84 0;
#X connect 36 0 32 0;
#X connect 37 0 38 0;
#X connect 38 0 40 0;
#X connect 40 0 41 0;
#X connect 40 0 47 0;
#X connect 40 1 42 0;
#X connect 40 1 47 0;
#X connect 40 2 48 0;
#X connect 40 2 47 0;
#X connect 40 3 49 0;
#X connect 40 3 47 0;
#X connect 40 4 50 0;
#X connect 40 4 47 0;
#X connect 40 5 51 0;
#X connect 40 5 47 0;
#X connect 40 6 52 0;
#X connect 40 6 47 0;
#X connect 40 7 53 0;
#X connect 40 7 47 0;
#X connect 40 8 54 0;
#X connect 40 8 47 0;
#X connect 41 0 44 1;
#X connect 42 0 44 1;
#X connect 44 0 45 0;
#X connect 45 0 33 0;
#X connect 46 0 44 0;
#X connect 47 0 46 0;
#X connect 48 0 44 1;
#X connect 49 0 44 1;
#X connect 50 0 44 1;
#X connect 51 0 44 1;
#X connect 52 0 44 1;
#X connect 53 0 44 1;
#X connect 54 0 44 1;
#X connect 55 0 84 0;
#X connect 55 0 83 0;
#X connect 55 0 105 0;
#X connect 57 0 76 0;
#X connect 57 1 73 0;
#X connect 58 0 57 0;
#X connect 59 0 57 0;
#X connect 60 0 57 0;
#X connect 61 0 57 0;
#X connect 62 0 63 0;
#X connect 62 0 60 0;
#X connect 62 0 64 0;
#X connect 62 0 74 0;
#X connect 64 0 61 0;
#X connect 65 0 58 0;
#X connect 65 0 68 0;
#X connect 66 0 59 0;
#X connect 66 0 67 0;
#X connect 73 0 77 0;
#X connect 73 0 84 0;
#X connect 73 0 55 0;
#X connect 74 0 75 0;
#X connect 75 0 73 1;
#X connect 75 0 76 1;
#X connect 76 0 77 0;
#X connect 76 0 83 0;
#X connect 76 0 55 0;
#X connect 77 0 101 0;
#X connect 78 0 79 0;
#X connect 80 0 82 0;
#X connect 81 0 83 1;
#X connect 81 0 84 1;
#X connect 82 0 81 0;
#X connect 83 0 89 0;
#X connect 83 0 115 0;
#X connect 84 0 89 0;
#X connect 84 0 116 0;
#X connect 85 0 86 0;
#X connect 86 0 87 0;
#X connect 87 0 88 0;
#X connect 87 0 90 0;
#X connect 91 0 92 0;
#X connect 92 0 78 0;
#X connect 93 0 94 0;
#X connect 94 0 80 0;
#X connect 95 0 96 0;
#X connect 98 0 100 0;
#X connect 99 0 101 1;
#X connect 100 0 99 0;
#X connect 101 0 83 0;
#X connect 101 0 84 0;
#X connect 101 0 55 0;
#X connect 102 0 103 0;
#X connect 102 0 104 0;
#X connect 103 0 65 0;
#X connect 103 0 66 0;
#X connect 104 0 62 0;
#X connect 106 0 124 0;
#X connect 106 0 150 0;
#X connect 108 0 55 0;
#X connect 109 0 31 0;
#X connect 110 0 128 0;
#X connect 111 0 112 0;
#X connect 112 0 6 0;
#X connect 112 0 7 0;
#X connect 113 0 157 0;
#X connect 114 0 149 0;
#X connect 115 0 97 0;
#X connect 115 0 117 0;
#X connect 116 0 97 1;
#X connect 116 0 117 1;
#X connect 118 0 117 0;
#X connect 119 0 117 0;
#X connect 120 0 122 0;
#X connect 121 0 122 0;
#X connect 122 0 97 0;
#X connect 122 1 97 1;
#X connect 124 0 123 0;
#X connect 125 0 126 0;
#X connect 126 0 127 0;
#X connect 127 0 124 1;
#X connect 128 0 98 0;
#X connect 129 0 137 0;
#X connect 129 1 137 0;
#X connect 130 0 134 0;
#X connect 131 0 132 0;
#X connect 132 0 133 0;
#X connect 133 0 130 1;
#X connect 135 0 129 0;
#X connect 136 0 83 0;
#X connect 136 0 84 0;
#X connect 138 0 129 1;
#X connect 140 0 143 0;
#X connect 140 1 143 1;
#X connect 141 0 145 0;
#X connect 142 0 141 0;
#X connect 143 0 144 0;
#X connect 144 0 141 0;
#X connect 144 0 142 0;
#X connect 145 0 146 0;
#X connect 145 1 147 0;
#X connect 148 0 155 0;
#X connect 149 0 125 0;
#X connect 149 1 131 0;
#X connect 149 2 151 0;
#X connect 150 0 153 0;
#X connect 151 0 159 0;
#X connect 152 0 150 1;
#X connect 154 0 158 0;
#X connect 156 0 83 0;
#X connect 156 0 84 0;
#X connect 157 0 109 0;
#X connect 157 0 28 0;
#X connect 158 0 148 0;
#X connect 159 0 152 0;
#X connect 160 0 158 1;
